name analog
datacolumns 19
datarows 63
range 0.0 0.031
endheader
time	ground_force_vx	ground_force_vy	ground_force_vz	ground_force_px	ground_force_py	ground_force_pz	l_ground_force_vx	l_ground_force_vy	l_ground_force_vz	l_ground_force_px	l_ground_force_py	l_ground_force_pz	ground_torque_x	ground_torque_y	ground_torque_z	l_ground_torque_x	l_ground_torque_y	l_ground_torque_z
0.0	-0.0	-0.0	-0.0	-1.9040796756744385	17.783506393432617	-218.26519775390625	-6.915823459625244	-68.18794250488281	-390.71490478515625	-0.0	-0.0	-0.0	-0.0	-0.0	-0.0	115094.6171875	-3715.335693359375	-7363.48291015625
0.0005	-0.0	-0.0	-0.0	-2.327733993530273	18.310108184814453	-218.8031463623047	-6.537175178527832	-67.7962646484375	-391.59576416015625	-0.0	-0.0	-0.0	-0.0	-0.0	-0.0	114809.734375	-4068.592529296875	-7302.50341796875
0.001	-0.0	-0.0	-0.0	-3.071453094482422	19.03564453125	-219.32473754882807	-6.259867668151856	-67.9270248413086	-389.4559631347656	-0.0	-0.0	-0.0	-0.0	-0.0	-0.0	114617.5078125	-4175.10595703125	-7009.51171875
0.0015	-0.0	-0.0	-0.0	-4.41376256942749	19.541114807128903	-221.3099365234375	-5.365029335021973	-67.78886413574219	-388.970458984375	-0.0	-0.0	-0.0	-0.0	-0.0	-0.0	114408.6953125	-4505.1982421875	-6861.89453125
0.002	-0.0	-0.0	-0.0	-4.76161003112793	19.59977531433105	-223.37747192382807	-4.612960815429688	-67.66255950927734	-387.5260925292969	-0.0	-0.0	-0.0	-0.0	-0.0	-0.0	114061.5703125	-4835.4853515625	-6620.03173828125
0.0025	-0.0	-0.0	-0.0	-5.531051635742188	20.36856460571289	-225.7358856201172	-4.342658996582031	-68.14225769042969	-386.5272521972656	-0.0	-0.0	-0.0	-0.0	-0.0	-0.0	113738.1328125	-4884.3564453125	-6204.65185546875
0.003	-0.0	-0.0	-0.0	-6.075618743896484	20.847217559814453	-229.9385528564453	-3.2486462593078613	-68.14657592773438	-384.7819519042969	-0.0	-0.0	-0.0	-0.0	-0.0	-0.0	113227.875	-5323.0166015625	-5758.8955078125
0.0035	-0.0	-0.0	-0.0	-6.474903583526611	21.24570846557617	-232.35470581054688	-2.885295391082764	-68.10039520263672	-382.6356201171875	-0.0	-0.0	-0.0	-0.0	-0.0	-0.0	112503.984375	-5447.603515625	-5401.1708984375
0.004	-0.0	-0.0	-0.0	-6.50262451171875	22.39926147460937	-239.7705993652344	-2.2177696228027344	-67.70529174804688	-378.0957946777344	-0.0	-0.0	-0.0	-0.0	-0.0	-0.0	111721.3828125	-5669.302734375	-5078.75
0.0045000000000000005	-0.0	-0.0	-0.0	-6.643674373626709	23.671640396118164	-248.0195159912109	-1.4706941843032837	-67.13835144042969	-375.5034484863281	-0.0	-0.0	-0.0	-0.0	-0.0	-0.0	110444.28125	-5919.51220703125	-4767.451171875
0.005	-0.0	-0.0	-0.0	-6.621963024139404	24.337692260742188	-253.8556671142578	-0.569535493850708	-66.68287658691406	-370.817626953125	-0.0	-0.0	-0.0	-0.0	-0.0	-0.0	109512.4375	-6164.83056640625	-4363.9140625
0.0055	-0.0	-0.0	-0.0	-6.1239333152771	26.19913673400879	-262.599609375	-0.1725899875164032	-65.88316345214844	-366.9963989257813	-0.0	-0.0	-0.0	-0.0	-0.0	-0.0	108451.2265625	-6315.271484375	-3876.413330078125
0.006	-0.0	-0.0	-0.0	-4.449823379516602	27.24270439147949	-271.2210388183594	0.8083499670028687	-65.62301635742188	-362.8745727539063	-0.0	-0.0	-0.0	-0.0	-0.0	-0.0	106873.515625	-6724.19091796875	-3605.442138671875
0.006500000000000001	-0.0	-0.0	-0.0	-3.7414140701293945	28.65271377563477	-281.6287841796875	1.8578742742538448	-64.38148498535156	-357.3069763183594	-0.0	-0.0	-0.0	-0.0	-0.0	-0.0	105251.3828125	-6783.865234375	-3059.8193359375
0.007	-0.0	-0.0	-0.0	-2.818464994430542	30.014741897583008	-292.9517822265625	2.348245859146118	-62.97851943969727	-350.7533874511719	-0.0	-0.0	-0.0	-0.0	-0.0	-0.0	103021.6953125	-6761.72802734375	-2659.622314453125
0.0075	-0.0	-0.0	-0.0	-2.302426815032959	31.06478309631348	-301.92388916015625	2.494513273239136	-61.20693206787109	-340.5272216796875	-0.0	-0.0	-0.0	-0.0	-0.0	-0.0	99984.625	-6732.3701171875	-2343.28662109375
0.008	-0.0	-0.0	-0.0	-1.5453691482543943	32.08119201660156	-310.42236328125	2.885791063308716	-59.18088912963867	-327.41949462890625	-0.0	-0.0	-0.0	-0.0	-0.0	-0.0	96407.46875	-6679.7587890625	-1913.2774658203125
0.0085	-0.0	-0.0	-0.0	-1.0229690074920654	33.513031005859375	-321.34698486328125	3.423654079437256	-56.52587890625	-315.39263916015625	-0.0	-0.0	-0.0	-0.0	-0.0	-0.0	92741.296875	-6440.4091796875	-1734.2847900390625
0.009000000000000001	-0.0	-0.0	-0.0	-0.3688037991523742	34.404335021972656	-334.06085205078125	3.8561177253723145	-54.14677047729492	-302.82470703125	-0.0	-0.0	-0.0	-0.0	-0.0	-0.0	88542.875	-6105.12646484375	-1422.8629150390625
0.0095	-0.0	-0.0	-0.0	-0.1663034856319427	36.597110748291016	-346.77471923828125	4.269477844238281	-51.72648620605469	-286.06695556640625	-0.0	-0.0	-0.0	-0.0	-0.0	-0.0	84075.2109375	-6066.70068359375	-1158.8154296875
0.01	-0.0	-0.0	-0.0	0.053911954164505	37.50530242919922	-358.42852783203125	4.5715179443359375	-48.99467468261719	-270.778564453125	-0.0	-0.0	-0.0	-0.0	-0.0	-0.0	79212.7734375	-5406.49072265625	-946.5323486328124
0.0105	-0.0	-0.0	-0.0	-0.1117116212844848	39.217376708984375	-372.5548400878906	4.772576332092285	-45.40916442871094	-253.8565826416016	-0.0	-0.0	-0.0	-0.0	-0.0	-0.0	74438.9921875	-4938.1494140625	-656.7791137695312
0.011	-0.0	-0.0	-0.0	0.7744015455245972	41.07624053955078	-388.20654296875	4.790382385253906	-42.28909683227539	-236.77252197265625	-0.0	-0.0	-0.0	-0.0	-0.0	-0.0	69461.7421875	-4363.80029296875	-582.74169921875
0.0115	-0.0	-0.0	-0.0	2.0236659049987797	43.29579162597656	-403.7962341308594	4.577890872955322	-39.13267135620117	-221.1104278564453	-0.0	-0.0	-0.0	-0.0	-0.0	-0.0	64320.44140625	-3968.38818359375	-421.9804382324219
0.012	-0.0	-0.0	-0.0	2.6763153076171875	45.284889221191406	-417.5957946777344	4.483027458190918	-35.953163146972656	-204.65216064453125	-0.0	-0.0	-0.0	-0.0	-0.0	-0.0	59485.8203125	-3369.084716796875	-343.9375305175781
0.0125	-0.0	-0.0	-0.0	3.609628915786743	47.794708251953125	-433.7049560546875	4.461180686950684	-32.50238037109375	-187.68161010742188	-0.0	-0.0	-0.0	-0.0	-0.0	-0.0	54560.70703125	-2788.7724609375	-331.3872375488281
0.013000000000000001	-0.0	-0.0	-0.0	3.79488205909729	50.3106803894043	-449.4620361328125	4.026609420776367	-29.098766326904297	-171.1098175048828	-0.0	-0.0	-0.0	-0.0	-0.0	-0.0	49850.78125	-2418.314453125	-346.7485046386719
0.0135	-0.0	-0.0	-0.0	3.980337619781494	52.05913162231445	-463.0189208984375	3.48758602142334	-26.1497859954834	-154.6164093017578	-0.0	-0.0	-0.0	-0.0	-0.0	-0.0	44882.82421875	-1481.796630859375	-492.5155029296875
0.014	-0.0	-0.0	-0.0	4.337398052215576	54.03979110717773	-478.1774597167969	2.811241865158081	-23.2828311920166	-139.5789337158203	-0.0	-0.0	-0.0	-0.0	-0.0	-0.0	40290.87890625	-1411.04345703125	-581.2362670898438
0.0145	-0.0	-0.0	-0.0	4.267698287963867	55.71148681640625	-493.2212829589844	2.463409662246704	-20.34796714782715	-124.88878631591795	-0.0	-0.0	-0.0	-0.0	-0.0	-0.0	35812.0390625	-829.9317626953125	-537.369140625
0.015	-0.0	-0.0	-0.0	4.445890426635742	58.07942581176758	-509.0074768066406	1.6785732507705688	-17.81407356262207	-109.84910583496094	-0.0	-0.0	-0.0	-0.0	-0.0	-0.0	31578.56640625	-545.9881591796875	-605.6491088867188
0.0155	-0.0	-0.0	-0.0	4.096257209777832	59.69135665893555	-522.559326171875	1.637629508972168	-15.54461669921875	-98.51617431640624	-0.0	-0.0	-0.0	-0.0	-0.0	-0.0	27814.31640625	-10.000295639038086	-609.7194213867188
0.016	-0.0	-0.0	-0.0	3.4459097385406494	61.23258972167969	-538.1442260742188	0.990118145942688	-12.868600845336914	-85.38163757324219	-0.0	-0.0	-0.0	-0.0	-0.0	-0.0	24274.408203125	265.0184020996094	-495.6073303222656
0.0165	-0.0	-0.0	-0.0	3.632231950759888	62.68405151367188	-550.4859008789062	1.256540298461914	-11.27917194366455	-74.74715423583984	-0.0	-0.0	-0.0	-0.0	-0.0	-0.0	21441.958984375	168.55029296875	-487.7690124511719
0.017	-0.0	-0.0	-0.0	4.2665863037109375	64.10026550292969	-563.9976806640625	0.8944786787033081	-8.975658416748047	-64.70909118652344	-0.0	-0.0	-0.0	-0.0	-0.0	-0.0	18270.685546875	523.939208984375	-512.1377563476562
0.0175	-0.0	-0.0	-0.0	4.063013553619385	65.1464614868164	-576.4207763671875	0.9020704627037048	-7.489252090454102	-54.4676513671875	-0.0	-0.0	-0.0	-0.0	-0.0	-0.0	15815.7685546875	672.0709228515625	-527.7083740234375
0.018000000000000002	-0.0	-0.0	-0.0	4.468541622161865	66.2884750366211	-586.7926025390625	1.2014087438583374	-5.965510368347168	-46.75630187988281	-0.0	-0.0	-0.0	-0.0	-0.0	-0.0	13206.2939453125	538.6859130859375	-394.75
0.0185	-0.0	-0.0	-0.0	3.868516445159912	67.20433044433594	-594.62646484375	0.1215108260512352	-4.5927276611328125	-40.53190612792969	-0.0	-0.0	-0.0	-0.0	-0.0	-0.0	10977.5625	773.2531127929688	-397.6806640625
0.019	-0.0	-0.0	-0.0	2.797795534133911	68.12787628173828	-604.421142578125	0.2739650011062622	-3.267902374267578	-31.803625106811523	-0.0	-0.0	-0.0	-0.0	-0.0	-0.0	9253.4990234375	752.9481811523438	-415.9317626953125
0.0195	-0.0	-0.0	-0.0	2.287393569946289	68.41877746582031	-611.4484252929688	-0.1450042128562927	-2.633223056793213	-27.26515007019043	-0.0	-0.0	-0.0	-0.0	-0.0	-0.0	7864.87890625	474.7228698730469	-416.0685119628906
0.02	-0.0	-0.0	-0.0	1.2573730945587158	69.55365753173828	-616.9385986328125	-0.4192834496498108	-1.8467566967010496	-23.23439216613769	-0.0	-0.0	-0.0	-0.0	-0.0	-0.0	6240.17529296875	654.3316650390625	-351.3627624511719
0.0205	-0.0	-0.0	-0.0	0.3482703268527984	69.01008605957031	-622.1773681640625	-0.0	-0.0	-0.0	-0.0	-0.0	-0.0	-0.0	-0.0	-0.0	-0.0	-0.0	-0.0
0.021	-0.0	-0.0	-0.0	-0.1381396055221557	69.00421142578125	-626.4384765625	-0.0	-0.0	-0.0	-0.0	-0.0	-0.0	-0.0	-0.0	-0.0	-0.0	-0.0	-0.0
0.021500000000000002	-0.0	-0.0	-0.0	-0.71368408203125	68.9240493774414	-631.3817138671875	-0.0	-0.0	-0.0	-0.0	-0.0	-0.0	-0.0	-0.0	-0.0	-0.0	-0.0	-0.0
0.022	-0.0	-0.0	-0.0	-1.213337540626526	68.59918975830078	-633.5868530273438	-0.0	-0.0	-0.0	-0.0	-0.0	-0.0	-0.0	-0.0	-0.0	-0.0	-0.0	-0.0
0.0225	-0.0	-0.0	-0.0	-1.882399559020996	68.58135986328125	-636.0770263671875	-0.0	-0.0	-0.0	-0.0	-0.0	-0.0	-0.0	-0.0	-0.0	-0.0	-0.0	-0.0
0.023	-0.0	-0.0	-0.0	-2.042747735977173	67.7263412475586	-636.7113647460938	-0.0	-0.0	-0.0	-0.0	-0.0	-0.0	-0.0	-0.0	-0.0	-0.0	-0.0	-0.0
0.0235	-0.0	-0.0	-0.0	-2.78393030166626	67.20433044433594	-636.6978759765625	-0.0	-0.0	-0.0	-0.0	-0.0	-0.0	-0.0	-0.0	-0.0	-0.0	-0.0	-0.0
0.024	-0.0	-0.0	-0.0	-2.725576162338257	66.95553588867188	-636.74658203125	-0.0	-0.0	-0.0	-0.0	-0.0	-0.0	-0.0	-0.0	-0.0	-0.0	-0.0	-0.0
0.0245	-0.0	-0.0	-0.0	-2.795945405960083	65.78973388671875	-637.0991821289062	-0.0	-0.0	-0.0	-0.0	-0.0	-0.0	-0.0	-0.0	-0.0	-0.0	-0.0	-0.0
0.025	-0.0	-0.0	-0.0	-3.389999389648437	65.4502944946289	-637.572021484375	-0.0	-0.0	-0.0	-0.0	-0.0	-0.0	-0.0	-0.0	-0.0	-0.0	-0.0	-0.0
0.025500000000000002	-0.0	-0.0	-0.0	-3.708264350891113	65.08446502685547	-634.9793090820312	-0.0	-0.0	-0.0	-0.0	-0.0	-0.0	-0.0	-0.0	-0.0	-0.0	-0.0	-0.0
0.026000000000000002	-0.0	-0.0	-0.0	-4.381104946136475	64.55975341796875	-634.1948852539062	-0.0	-0.0	-0.0	-0.0	-0.0	-0.0	-0.0	-0.0	-0.0	-0.0	-0.0	-0.0
0.0265	-0.0	-0.0	-0.0	-5.640202522277832	64.03526306152344	-630.661376953125	-0.0	-0.0	-0.0	-0.0	-0.0	-0.0	-0.0	-0.0	-0.0	-0.0	-0.0	-0.0
0.027	-0.0	-0.0	-0.0	-6.452791213989258	62.94570159912109	-627.4439086914062	-0.0	-0.0	-0.0	-0.0	-0.0	-0.0	-0.0	-0.0	-0.0	-0.0	-0.0	-0.0
0.0275	-0.0	-0.0	-0.0	-6.641139030456543	62.17428207397461	-622.3399047851562	-0.0	-0.0	-0.0	-0.0	-0.0	-0.0	-0.0	-0.0	-0.0	-0.0	-0.0	-0.0
0.028	-0.0	-0.0	-0.0	-6.680590629577637	61.28224563598633	-618.0296020507812	-0.0	-0.0	-0.0	-0.0	-0.0	-0.0	-0.0	-0.0	-0.0	-0.0	-0.0	-0.0
0.0285	-0.0	-0.0	-0.0	-6.721818923950195	60.19208526611328	-614.2951049804688	-0.0	-0.0	-0.0	-0.0	-0.0	-0.0	-0.0	-0.0	-0.0	-0.0	-0.0	-0.0
0.029	-0.0	-0.0	-0.0	-6.000236034393311	59.33190155029297	-609.3179321289062	-0.0	-0.0	-0.0	-0.0	-0.0	-0.0	-0.0	-0.0	-0.0	-0.0	-0.0	-0.0
0.029500000000000002	-0.0	-0.0	-0.0	-5.273950099945068	58.44076156616211	-603.740234375	-0.0	-0.0	-0.0	-0.0	-0.0	-0.0	-0.0	-0.0	-0.0	-0.0	-0.0	-0.0
0.03	-0.0	-0.0	-0.0	-4.442609786987305	57.727935791015625	-599.035400390625	-0.0	-0.0	-0.0	-0.0	-0.0	-0.0	-0.0	-0.0	-0.0	-0.0	-0.0	-0.0
0.0305	-0.0	-0.0	-0.0	-3.518439054489136	57.42146301269531	-594.40185546875	-0.0	-0.0	-0.0	-0.0	-0.0	-0.0	-0.0	-0.0	-0.0	-0.0	-0.0	-0.0
0.031	-0.0	-0.0	-0.0	-3.0331573486328125	56.96518325805664	-591.3092651367188	-0.0	-0.0	-0.0	-0.0	-0.0	-0.0	-0.0	-0.0	-0.0	-0.0	-0.0	-0.0
